G04 #@! TF.FileFunction,Legend,Bot*
%FSLAX46Y46*%
G04 Gerber Fmt 4.6, Leading zero omitted, Abs format (unit mm)*
G04 Created by KiCad (PCBNEW 4.0.5) date 08/14/17 09:26:25*
%MOMM*%
%LPD*%
G01*
G04 APERTURE LIST*
%ADD10C,0.100000*%
%ADD11C,0.200000*%
%ADD12C,0.300000*%
%ADD13C,1.800000*%
%ADD14R,2.178000X5.480000*%
G04 APERTURE END LIST*
D10*
D11*
X133000000Y-108500000D02*
X134000000Y-108500000D01*
X146000000Y-108500000D02*
X147000000Y-108500000D01*
D12*
X133785714Y-108178571D02*
X133499999Y-108178571D01*
X133357142Y-108107143D01*
X133285714Y-108035714D01*
X133142856Y-107821429D01*
X133071428Y-107535714D01*
X133071428Y-106964286D01*
X133142856Y-106821429D01*
X133214285Y-106750000D01*
X133357142Y-106678571D01*
X133642856Y-106678571D01*
X133785714Y-106750000D01*
X133857142Y-106821429D01*
X133928571Y-106964286D01*
X133928571Y-107321429D01*
X133857142Y-107464286D01*
X133785714Y-107535714D01*
X133642856Y-107607143D01*
X133357142Y-107607143D01*
X133214285Y-107535714D01*
X133142856Y-107464286D01*
X133071428Y-107321429D01*
X146214285Y-106678571D02*
X146499999Y-106678571D01*
X146642856Y-106750000D01*
X146714285Y-106821429D01*
X146857142Y-107035714D01*
X146928571Y-107321429D01*
X146928571Y-107892857D01*
X146857142Y-108035714D01*
X146785714Y-108107143D01*
X146642856Y-108178571D01*
X146357142Y-108178571D01*
X146214285Y-108107143D01*
X146142856Y-108035714D01*
X146071428Y-107892857D01*
X146071428Y-107535714D01*
X146142856Y-107392857D01*
X146214285Y-107321429D01*
X146357142Y-107250000D01*
X146642856Y-107250000D01*
X146785714Y-107321429D01*
X146857142Y-107392857D01*
X146928571Y-107535714D01*
%LPC*%
D13*
X135763000Y-105410000D02*
X135763000Y-109728000D01*
X138557000Y-105410000D02*
X138557000Y-109728000D01*
X141351000Y-105410000D02*
X141351000Y-109728000D01*
X144145000Y-105410000D02*
X144145000Y-109728000D01*
D14*
X144145000Y-112460000D03*
X141351000Y-112460000D03*
X138557000Y-112460000D03*
X135763000Y-112460000D03*
X135763000Y-102667000D03*
X138557000Y-102667000D03*
X141351000Y-102667000D03*
X144145000Y-102667000D03*
M02*
