G04 This is an RS-274x file exported by *
G04 gerbv version 2.6A *
G04 More information is available about gerbv at *
G04 http://gerbv.geda-project.org/ *
G04 --End of header info--*
%MOIN*%
%FSLAX34Y34*%
%IPPOS*%
G04 --Define apertures--*
%ADD10C,0.0039*%
%ADD11C,0.0118*%
%ADD12C,0.0059*%
%ADD13C,0.0709*%
%ADD14R,0.0857X0.2157*%
G04 --Start main section--*
G54D11*
G01X0052306Y-041999D02*
G01X0052025Y-041999D01*
G01X0052025Y-041999D02*
G01X0051997Y-042281D01*
G01X0051997Y-042281D02*
G01X0052025Y-042253D01*
G01X0052025Y-042253D02*
G01X0052081Y-042224D01*
G01X0052081Y-042224D02*
G01X0052222Y-042224D01*
G01X0052222Y-042224D02*
G01X0052278Y-042253D01*
G01X0052278Y-042253D02*
G01X0052306Y-042281D01*
G01X0052306Y-042281D02*
G01X0052334Y-042337D01*
G01X0052334Y-042337D02*
G01X0052334Y-042478D01*
G01X0052334Y-042478D02*
G01X0052306Y-042534D01*
G01X0052306Y-042534D02*
G01X0052278Y-042562D01*
G01X0052278Y-042562D02*
G01X0052222Y-042590D01*
G01X0052222Y-042590D02*
G01X0052081Y-042590D01*
G01X0052081Y-042590D02*
G01X0052025Y-042562D01*
G01X0052025Y-042562D02*
G01X0051997Y-042534D01*
G01X0058240Y-042590D02*
G01X0057902Y-042590D01*
G01X0058071Y-042590D02*
G01X0058071Y-041999D01*
G01X0058071Y-041999D02*
G01X0058015Y-042084D01*
G01X0058015Y-042084D02*
G01X0057958Y-042140D01*
G01X0057958Y-042140D02*
G01X0057902Y-042168D01*
%LPC*%
G54D13*
G01X0057300Y-041500D02*
G01X0057300Y-043200D01*
G01X0056200Y-041500D02*
G01X0056200Y-043200D01*
G01X0055100Y-041500D02*
G01X0055100Y-043200D01*
G01X0054000Y-041500D02*
G01X0054000Y-043200D01*
G01X0052900Y-041500D02*
G01X0052900Y-043200D01*
G54D14*
G01X0054000Y-044276D03*
G01X0055100Y-044276D03*
G01X0056200Y-044276D03*
G01X0057300Y-044276D03*
G01X0052900Y-044276D03*
G01X0056200Y-040420D03*
G01X0055100Y-040420D03*
G01X0054000Y-040420D03*
G01X0052900Y-040420D03*
G01X0057300Y-040420D03*
M02*
